<svg width="32" height="32" viewBox="0 0 32 32" fill="none" xmlns="http://www.w3.org/2000/svg">
<g id="Add circle outline" clip-path="url(#clip0_20_2)">
<path id="Vector" d="M16 9.33334C15.2667 9.33334 14.6667 9.93334 14.6667 10.6667V14.6667H10.6667C9.93334 14.6667 9.33334 15.2667 9.33334 16C9.33334 16.7333 9.93334 17.3333 10.6667 17.3333H14.6667V21.3333C14.6667 22.0667 15.2667 22.6667 16 22.6667C16.7333 22.6667 17.3333 22.0667 17.3333 21.3333V17.3333H21.3333C22.0667 17.3333 22.6667 16.7333 22.6667 16C22.6667 15.2667 22.0667 14.6667 21.3333 14.6667H17.3333V10.6667C17.3333 9.93334 16.7333 9.33334 16 9.33334ZM16 2.66667C8.64 2.66667 2.66667 8.64 2.66667 16C2.66667 23.36 8.64 29.3333 16 29.3333C23.36 29.3333 29.3333 23.36 29.3333 16C29.3333 8.64 23.36 2.66667 16 2.66667ZM16 26.6667C10.12 26.6667 5.33334 21.88 5.33334 16C5.33334 10.12 10.12 5.33334 16 5.33334C21.88 5.33334 26.6667 10.12 26.6667 16C26.6667 21.88 21.88 26.6667 16 26.6667Z" fill="#F4CA44"/>
</g>
<defs>
<clipPath id="clip0_20_2">
<rect width="32" height="32" fill="white"/>
</clipPath>
</defs>
</svg>
