<svg width="25" height="24" viewBox="0 0 25 24" fill="none" xmlns="http://www.w3.org/2000/svg">
<g id="Trash">
<path id="Vector" d="M10.0696 2L9.07204 3H5.08164C4.48309 3 4.08405 3.4 4.08405 4C4.08405 4.6 4.48309 5 5.08164 5H7.07684H17.0528H19.048C19.6466 5 20.0456 4.6 20.0456 4C20.0456 3.4 19.6466 3 19.048 3H15.0576L14.06 2H10.0696ZM5.08164 7V20C5.08164 21.1 5.97948 22 7.07684 22H17.0528C18.1502 22 19.048 21.1 19.048 20V7H5.08164ZM9.07204 9C9.6706 9 10.0696 9.4 10.0696 10V19C10.0696 19.6 9.6706 20 9.07204 20C8.47348 20 8.07444 19.6 8.07444 19V10C8.07444 9.4 8.47348 9 9.07204 9ZM15.0576 9C15.6562 9 16.0552 9.4 16.0552 10V19C16.0552 19.6 15.6562 20 15.0576 20C14.4591 20 14.06 19.6 14.06 19V10C14.06 9.4 14.4591 9 15.0576 9Z" fill="#848484"/>
</g>
</svg>
